<svg width="29" height="20" viewBox="0 0 29 20" fill="none" xmlns="http://www.w3.org/2000/svg"><g clip-path="url(#clip0_657_1156)"><path d="M28.3943 3.12963C28.2304 2.52441 27.9073 1.97203 27.4574 1.52781C27.0074 1.08359 26.4463 0.763133 25.8303 0.598519C23.5685 4.41516e-08 14.5022 0 14.5022 0C14.5022 0 5.43368 4.41516e-08 3.17409 0.598519C2.55729 0.762454 1.99528 1.08261 1.54446 1.52687C1.09364 1.97114 0.769872 2.52387 0.605631 3.12963C0.0014648 5.36222 0.00146484 10.0185 0.00146484 10.0185C0.00146484 10.0185 0.0014648 14.677 0.605631 16.9074C0.770798 17.5076 1.09503 18.0541 1.54537 18.4916C1.99571 18.929 2.55609 19.2416 3.16956 19.3978C5.43141 19.9963 14.4977 19.9963 14.4977 19.9963C14.4977 19.9963 23.5662 19.9963 25.8258 19.3978C26.4393 19.2416 26.9997 18.929 27.45 18.4916C27.9003 18.0541 28.2246 17.5076 28.3897 16.9074C28.9939 14.6748 28.9939 10.0185 28.9939 10.0185C28.9939 10.0185 28.9939 5.36 28.3897 3.12963H28.3943ZM11.5343 14.2496V5.79111L19.1135 10.0207L11.5343 14.2496Z" fill="white"></path></g><defs><clipPath id="clip0_657_1156"><rect width="29" height="20" fill="white"></rect></clipPath></defs></svg>