<svg xmlns="http://www.w3.org/2000/svg" width="16.527" height="16.527" viewBox="0 0 16.527 16.527">
  <g id="Group_525" data-name="Group 525" transform="translate(-5 -5)">
    <path id="Path_97" data-name="Path 97" d="M12.345,19.618v1.91h1.836v-1.91a6.428,6.428,0,0,0,5.436-5.436h1.91V12.345h-1.91A6.428,6.428,0,0,0,14.182,6.91V5H12.345V6.91A6.428,6.428,0,0,0,6.91,12.345H5v1.836H6.91A6.428,6.428,0,0,0,12.345,19.618Zm.918-10.945a4.591,4.591,0,1,1-4.591,4.591A4.593,4.593,0,0,1,13.264,8.673Z" fill="#212121"/>
    <path id="Path_98" data-name="Path 98" d="M37.755,40.509A2.755,2.755,0,1,0,35,37.755,2.751,2.751,0,0,0,37.755,40.509Z" transform="translate(-24.491 -24.491)" fill="#212121"/>
  </g>
</svg>
